<svg xmlns="http://www.w3.org/2000/svg" fill="currentColor" viewBox="0 0 24 24">
  <path fill="#000" d="m9.4 16.9-.2.1-.2-.1.2-.1h.2Zm-1-.2v.2a.2.2 0 0 0 .3 0l-.1-.2h-.2Zm1.4 0-.2.1.2.1.2-.1-.2-.1ZM11.9 4A7.8 7.8 0 0 0 4 12a8.3 8.3 0 0 0 5.5 8c.4 0 .5-.2.5-.4v-2s-2.2.5-2.7-1c0 0-.4-1-.9-1.2 0 0-.7-.5 0-.5a1.7 1.7 0 0 1 1.3.8 1.7 1.7 0 0 0 2.4.7c0-.4.2-.8.5-1-1.8-.3-3.7-.6-3.7-3.8a2.5 2.5 0 0 1 .8-1.9c-.2-.7-.2-1.5 0-2.2.8-.3 2.3.9 2.3.9 1.3-.4 2.7-.4 4 0 0 0 1.6-1.2 2.3-1 .3.8.3 1.6 0 2.3a2.6 2.6 0 0 1 .9 2c0 3.2-1.9 3.4-3.7 3.6a2 2 0 0 1 .5 1.5v2.8a.4.4 0 0 0 .6.4 8.2 8.2 0 0 0 5.4-8 8 8 0 0 0-8.1-8ZM7.1 15.4v.2a.1.1 0 0 0 .2 0v-.2h-.2Zm-.3-.3v.2H7V15h-.2Zm1 1.2v.2c0 .1.2.1.2 0v-.2h-.2Zm-.4-.5v.2l.2.1a.2.2 0 0 0 0-.2s-.1-.1-.2 0Z"/>
</svg>
