<svg xmlns="http://www.w3.org/2000/svg" fill="currentColor" viewBox="0 0 24 24">
  <path fill="#FFFFF" d="M3 6.5a14.5 14.5 0 0 0 16.5 14.4c.9-.2 1.5-1 1.5-1.9v-2.6a2 2 0 0 0-1.4-1.9l-3.1-1c-.8-.3-1.7.2-1.9 1-.3 1.1-1.6 1.5-2.4.7l-3.4-3.4c-.8-.8-.4-2.1.7-2.4.8-.2 1.3-1 1-1.9l-1-3.1a2 2 0 0 0-2-1.4H5C4 3 3.3 3.6 3 4.5l-.1 2Z" opacity="1"/>
  <path stroke="#FFFFF" stroke-linejoin="round" stroke-width="0.5" d="M3 6.5a14.5 14.5 0 0 0 16.5 14.4c.9-.2 1.5-1 1.5-1.9v-2.6a2 2 0 0 0-1.4-1.9l-3.1-1c-.8-.3-1.7.2-1.9 1-.3 1.1-1.6 1.5-2.4.7l-3.4-3.4c-.8-.8-.4-2.1.7-2.4.8-.2 1.3-1 1-1.9l-1-3.1a2 2 0 0 0-2-1.4H5C4 3 3.3 3.6 3 4.5l-.1 2Z"/>
</svg>
